<?xml version="1.0" encoding="iso-8859-1"?>
<!-- Generator: Adobe Illustrator 19.0.0, SVG Export Plug-In . SVG Version: 6.00 Build 0)  -->
<svg version="1.1" id="Capa_1" xmlns="http://www.w3.org/2000/svg" xmlns:xlink="http://www.w3.org/1999/xlink" x="0px" y="0px"
	 viewBox="0 0 512.001 512.001" style="enable-background:new 0 0 512.001 512.001;" xml:space="preserve">
<g>
	<g>
		<path d="M444.033,406.871c-1.859-1.86-4.439-2.929-7.068-2.929c-2.629,0-5.209,1.069-7.068,2.929
			c-1.859,1.859-2.929,4.439-2.929,7.068s1.07,5.209,2.929,7.067c1.859,1.859,4.439,2.93,7.068,2.93c2.629,0,5.209-1.07,7.068-2.93
			c1.87-1.859,2.929-4.438,2.929-7.067S445.903,408.73,444.033,406.871z"/>
	</g>
</g>
<g>
	<g>
		<path d="M193.511,435.933c-20.947,0-37.99,17.042-37.99,37.99c0,20.947,17.042,37.99,37.99,37.99
			c20.947,0,37.99-17.042,37.99-37.99C231.501,452.975,214.458,435.933,193.511,435.933z M193.511,491.918
			c-9.922,0-17.995-8.073-17.995-17.995s8.073-17.995,17.995-17.995c9.922,0,17.995,8.073,17.995,17.995
			S203.433,491.918,193.511,491.918z"/>
	</g>
</g>
<g>
	<g>
		<path d="M376.883,435.933c-20.947,0-37.99,17.042-37.99,37.99c0,20.947,17.042,37.99,37.99,37.99
			c20.947,0,37.99-17.042,37.99-37.99C414.873,452.975,397.831,435.933,376.883,435.933z M376.883,491.918
			c-9.922,0-17.995-8.073-17.995-17.995s8.073-17.995,17.995-17.995c9.922,0,17.995,8.073,17.995,17.995
			S386.807,491.918,376.883,491.918z"/>
	</g>
</g>
<g>
	<g>
		<path d="M467.423,264.491c-5.418-1.045-10.664,2.503-11.708,7.926l-14.53,75.431c-0.905,4.697-5.034,8.106-9.817,8.106H142.872
			l-39.154-170.287h102.806c5.522,0,9.997-4.476,9.997-9.997c0-5.521-4.476-9.997-9.997-9.997H99.12l-10.663-46.376
			c-3.149-13.702-15.169-23.272-29.229-23.272H9.997C4.476,96.024,0,100.5,0,106.022c0,5.522,4.476,9.997,9.997,9.997h49.232
			c4.687,0,8.693,3.189,9.743,7.757l67.232,292.403c1.044,4.54,5.085,7.757,9.743,7.757h254.998c5.522,0,9.997-4.477,9.997-9.997
			c0-5.521-4.476-9.997-9.997-9.997H153.906l-6.436-27.992h283.898c14.35,0,26.737-10.227,29.45-24.318l14.53-75.431
			C476.393,270.777,472.845,265.536,467.423,264.491z"/>
	</g>
</g>
<g>
	<g>
		<path d="M508.134,135.11c6.35-10.318,4.757-23.464-3.875-31.965l-9.984-9.835c-1.223-1.205-1.854-2.877-1.733-4.59l1-14.048
			c0.865-12.142-6.67-23.075-18.325-26.588l-13.221-3.986c-1.654-0.499-2.996-1.694-3.684-3.278l-5.534-12.767
			c-4.796-11.064-16.866-17.407-28.698-15.087l-13.415,2.633c-1.706,0.333-3.456-0.1-4.807-1.191l-10.679-8.622
			c-9.409-7.596-23.069-7.598-32.479,0l-10.679,8.622c-1.352,1.091-3.102,1.526-4.808,1.19l-13.416-2.633
			c-11.833-2.323-23.902,4.022-28.697,15.084l-5.536,12.77c-0.687,1.585-2.029,2.779-3.683,3.278l-13.219,3.985
			c-11.654,3.514-19.189,14.447-18.324,26.588l1,14.049c0.122,1.712-0.51,3.384-1.732,4.589l-9.984,9.835
			c-8.632,8.502-10.225,21.647-3.875,31.965l7.382,11.997c0.898,1.46,1.112,3.232,0.588,4.864l-4.32,13.433
			c-3.715,11.553,0.979,23.949,11.413,30.143l11.967,7.105c1.48,0.878,2.494,2.355,2.783,4.052l2.354,13.814
			c2.052,12.039,12.005,20.869,24.201,21.475l13.704,0.681c1.731,0.086,3.325,0.927,4.373,2.305l8.357,10.996
			c4.995,6.57,12.76,10.179,20.67,10.179c3.673,0,7.378-0.778,10.85-2.399l12.39-5.785c1.575-0.736,3.381-0.736,4.957,0
			l12.388,5.785c10.952,5.113,24.208,1.841,31.521-7.783l8.353-10.992c1.049-1.38,2.643-2.22,4.374-2.306l13.707-0.682
			c12.197-0.606,22.149-9.436,24.201-21.475l2.354-13.814c0.289-1.697,1.304-3.173,2.783-4.052l11.967-7.104
			c10.434-6.194,15.128-18.59,11.414-30.143l-4.32-13.433c-0.525-1.632-0.311-3.404,0.587-4.863L508.134,135.11z M491.105,124.631
			l-7.383,11.998c-3.962,6.44-4.908,14.263-2.593,21.461l4.32,13.433c0.842,2.618-0.222,5.427-2.585,6.83l-11.966,7.104
			c-6.532,3.878-11.01,10.396-12.288,17.885l-2.354,13.813c-0.465,2.727-2.719,4.728-5.484,4.866l-13.708,0.682
			c-7.638,0.38-14.672,4.089-19.3,10.178l-8.353,10.992c-1.658,2.179-4.661,2.921-7.143,1.763l-12.388-5.785
			c-6.952-3.247-14.927-3.246-21.878,0l-12.389,5.785c-2.481,1.16-5.485,0.417-7.142-1.763l-8.357-10.996
			c-4.627-6.087-11.661-9.796-19.299-10.176l-13.704-0.681c-2.763-0.137-5.019-2.138-5.484-4.866l-2.354-13.814
			c-1.277-7.488-5.755-14.007-12.287-17.884l-11.967-7.104c-2.364-1.404-3.427-4.212-2.585-6.83l4.32-13.433
			c2.314-7.199,1.37-15.021-2.593-21.462l-7.383-11.998c-1.439-2.337-1.078-5.316,0.878-7.242l9.985-9.836
			c5.396-5.316,8.182-12.698,7.644-20.253l-1-14.049c-0.196-2.75,1.512-5.228,4.151-6.024l13.219-3.985
			c7.298-2.2,13.223-7.474,16.256-14.467l5.536-12.77c0.937-2.159,3.096-3.526,5.392-3.526c0.369,0,0.74,0.036,1.111,0.108
			l13.415,2.632c7.521,1.479,15.254-0.438,21.218-5.253l10.679-8.622c2.133-1.722,5.228-1.721,7.359,0l10.679,8.622
			c5.963,4.814,13.694,6.728,21.218,5.254l13.414-2.632c2.683-0.53,5.416,0.912,6.501,3.418l5.534,12.767
			c3.032,6.996,8.958,12.27,16.258,14.47l13.221,3.986c2.64,0.796,4.348,3.273,4.152,6.024l-1,14.048
			c-0.538,7.555,2.248,14.937,7.644,20.254l9.984,9.835C492.182,119.314,492.543,122.292,491.105,124.631z"/>
	</g>
</g>
<g>
	<g>
		<path d="M402.067,87.828c-4.809-2.715-10.906-1.018-13.62,3.791l-46.365,82.13c-2.714,4.809-1.018,10.906,3.791,13.62
			c1.554,0.877,3.24,1.294,4.906,1.294c3.489,0,6.877-1.83,8.715-5.085l46.365-82.13C408.572,96.639,406.874,90.542,402.067,87.828z
			"/>
	</g>
</g>
<g>
	<g>
		<path d="M409.072,140.346c-14.337,0-26.001,11.664-26.001,26.001s11.664,26.001,26.001,26.001
			c14.337,0,26.001-11.664,26.001-26.001S423.408,140.346,409.072,140.346z M409.072,172.354c-3.312,0-6.006-2.694-6.006-6.006
			c0-3.312,2.694-6.006,6.006-6.006c3.312,0,6.006,2.694,6.006,6.006C415.078,169.66,412.384,172.354,409.072,172.354z"/>
	</g>
</g>
<g>
	<g>
		<path d="M348.811,73.885c-14.337,0-26.001,11.664-26.001,26.001c0,14.337,11.664,26.001,26.001,26.001
			s26.001-11.664,26.001-26.001C374.812,85.549,363.148,73.885,348.811,73.885z M348.81,105.893c-3.312,0-6.006-2.694-6.006-6.006
			c0-3.312,2.694-6.006,6.006-6.006c3.312,0,6.006,2.694,6.006,6.006C354.816,103.198,352.122,105.893,348.81,105.893z"/>
	</g>
</g>
<g>
</g>
<g>
</g>
<g>
</g>
<g>
</g>
<g>
</g>
<g>
</g>
<g>
</g>
<g>
</g>
<g>
</g>
<g>
</g>
<g>
</g>
<g>
</g>
<g>
</g>
<g>
</g>
<g>
</g>
</svg>
