<svg height="480pt" viewBox="-56 0 480 480" width="480pt" xmlns="http://www.w3.org/2000/svg"><path d="m367.894531 103.496094c-.039062-.699219-.175781-1.394532-.40625-2.054688-.089843-.257812-.152343-.503906-.265625-.753906-.386718-.871094-.929687-1.664062-1.597656-2.34375l-96-96c-.679688-.671875-1.476562-1.214844-2.351562-1.601562-.242188-.109376-.480469-.175782-.730469-.261719-.675781-.234375-1.378907-.375-2.09375-.417969-.136719.0273438-.28125-.0625-.449219-.0625h-224c-22.082031.0273438-39.9726562 17.917969-40 40v400c.0273438 22.082031 17.917969 39.972656 40 40h288c22.082031-.027344 39.972656-17.917969 40-40v-336c0-.175781-.089844-.328125-.105469-.503906zm-27.207031-7.496094h-60.6875c-4.417969 0-8-3.582031-8-8v-60.6875zm-12.6875 368h-288c-13.253906 0-24-10.746094-24-24v-400c0-13.253906 10.746094-24 24-24h216v72c0 13.253906 10.746094 24 24 24h72v328c0 13.253906-10.746094 24-24 24zm0 0"/><path d="m264 240c.113281-38.851562-27.703125-72.167969-65.953125-78.992188-38.25-6.820312-75.871094 14.828126-89.195313 51.324219-13.324218 36.496094 1.5 77.289063 35.148438 96.714844v42.953125c0 22.089844 17.910156 40 40 40s40-17.910156 40-40v-42.960938c24.777344-14.148437 40.050781-40.507812 40-69.039062zm-98.144531 77.894531c2.464843.570313 4.960937.976563 7.472656 1.3125 1.03125.144531 2.070313.25 3.113281.351563 1.765625.167968 3.535156.257812 5.3125.3125.75 0 1.492188.128906 2.246094.128906s1.496094-.113281 2.246094-.128906c1.777344-.054688 3.546875-.144532 5.3125-.3125 1.050781-.101563 2.082031-.207032 3.113281-.351563 2.511719-.328125 5.007813-.734375 7.472656-1.304687.269531-.0625.535157-.160156.800781-.222656 1.695313-.40625 3.382813-.847657 5.046876-1.367188v19.6875h-47.992188v-19.6875c1.664062.519531 3.359375.960938 5.0625 1.375.265625.066406.539062.152344.792969.207031zm18.144531 58.105469c-13.253906 0-24-10.746094-24-24h48c0 13.253906-10.746094 24-24 24zm28.425781-78.671875c-13.371093 6.503906-28.558593 8.238281-43.050781 4.910156-2.390625-.546875-4.75-1.234375-7.0625-2.054687-2.300781-.8125-4.550781-1.769532-6.738281-2.855469-26.625-13.203125-40.660157-43-33.878907-71.9375s32.589844-49.402344 62.3125-49.402344c29.722657 0 55.53125 20.464844 62.3125 49.402344s-7.253906 58.734375-33.878906 71.9375zm0 0"/><path d="m204 237.761719-15.023438-12c-2.921874-2.335938-7.070312-2.335938-9.992187 0l-14.984375 12-14.984375-12-10 12.496093 20 16c2.921875 2.339844 7.078125 2.339844 10 0l14.984375-12.011718 15.023438 12c2.921874 2.335937 7.070312 2.335937 9.992187 0l20-16-10-12.492188zm0 0"/><path d="m176 112h16v32h-16zm0 0"/><path d="m87.839844 155.152344 11.316406-11.316406 22.625 22.628906-11.3125 11.3125zm0 0"/><path d="m56 232h32v16h-32zm0 0"/><path d="m87.839844 324.855469 22.628906-22.625 11.3125 11.3125-22.625 22.628906zm0 0"/><path d="m246.234375 313.535156 11.3125-11.3125 22.628906 22.625-11.316406 11.316406zm0 0"/><path d="m280 232h32v16h-32zm0 0"/><path d="m246.234375 166.457031 22.625-22.628906 11.316406 11.316406-22.628906 22.625zm0 0"/></svg>