<?xml version="1.0" encoding="UTF-8" standalone="yes"?>
<svg xmlns="http://www.w3.org/2000/svg" xmlns:xlink="http://www.w3.org/1999/xlink" viewBox="0 0 50 50" version="1.1" width="50" height="50" fill="#000000">
  <g id="surface1">
    <path style=" " d="M 47.984375 41.433594 C 47.917969 41.347656 47.433594 41.078125 47.242188 41.078125 C 47.050781 41.078125 46.425781 41.488281 46.304688 41.574219 C 46.1875 41.660156 45.886719 41.800781 45.789063 41.8125 C 45.691406 41.820313 44.832031 41.863281 44.640625 41.863281 C 44.445313 41.863281 44.15625 41.8125 44.027344 41.820313 C 43.898438 41.832031 43.640625 41.832031 43.585938 41.832031 C 43.53125 41.832031 43.511719 41.746094 43.585938 41.660156 C 43.660156 41.574219 43.789063 41.339844 43.917969 41.164063 C 44.046875 40.992188 44.261719 40.855469 44.390625 40.789063 C 44.519531 40.722656 44.726563 40.636719 44.746094 40.550781 C 44.769531 40.464844 44.425781 40.464844 44.21875 40.53125 C 44.015625 40.59375 43.726563 40.886719 43.648438 40.972656 C 43.574219 41.058594 43.511719 41.070313 43.445313 41.058594 C 43.382813 41.046875 43.253906 41.164063 43.199219 41.207031 C 43.144531 41.25 43.003906 41.347656 42.875 41.347656 C 42.746094 41.347656 42.585938 41.207031 42.519531 41.152344 C 42.457031 41.101563 42.328125 41.058594 42.242188 41.066406 C 42.15625 41.078125 41.984375 41.023438 41.863281 40.929688 C 41.746094 40.832031 41.714844 40.734375 41.746094 40.679688 C 41.777344 40.628906 41.84375 40.488281 41.863281 40.421875 C 41.886719 40.359375 41.800781 40.324219 41.722656 40.28125 C 41.648438 40.238281 40.980469 39.832031 40.476563 39.347656 C 40.035156 38.960938 39.238281 38.390625 38.871094 38.089844 C 38.589844 37.855469 37.054688 36.667969 36.109375 36.066406 C 35.160156 35.464844 34.3125 34.859375 33.96875 34.808594 C 33.621094 34.753906 33.535156 34.722656 33.449219 34.613281 C 33.363281 34.507813 32.019531 33.257813 31.257813 32.839844 C 30.492188 32.421875 28.953125 31.6875 28.878906 31.625 C 29.019531 31.375 29.050781 31.097656 28.984375 30.847656 C 28.921875 30.601563 28.40625 30.226563 28.199219 30.085938 C 27.996094 29.945313 27.855469 29.890625 27.855469 29.890625 C 27.855469 29.890625 27.523438 29.148438 27.492188 29.039063 C 27.589844 28.644531 27.847656 27.371094 27.792969 25.683594 C 27.738281 23.996094 27.609375 23.746094 27.425781 23.394531 C 27.242188 23.039063 26.976563 22.683594 26.78125 21.898438 C 26.589844 21.113281 26.535156 20.402344 26.632813 20.089844 C 26.726563 19.777344 26.984375 19.230469 27.15625 18.597656 C 27.328125 17.960938 27.222656 17.488281 27.242188 17.273438 C 27.265625 17.058594 27.425781 16.84375 27.460938 16.28125 C 27.492188 15.722656 27.695313 15.691406 27.847656 14.882813 C 27.996094 14.078125 28.070313 13.59375 28.070313 13.59375 C 28.070313 13.59375 28.339844 13.550781 28.394531 13.3125 C 28.449219 13.074219 28.460938 12.882813 28.523438 12.507813 C 28.589844 12.128906 28.609375 11.699219 28.621094 11.613281 C 28.632813 11.527344 28.546875 11.386719 28.546875 11.386719 C 28.546875 11.386719 28.652344 9.847656 28.683594 9.472656 C 28.71875 9.09375 28.835938 8.816406 28.835938 8.664063 C 28.835938 8.515625 28.847656 8.394531 28.675781 8.128906 C 28.710938 8.042969 28.746094 7.988281 28.777344 7.949219 C 28.808594 7.953125 28.835938 7.953125 28.863281 7.953125 C 30.230469 7.953125 31.34375 6.847656 31.34375 5.476563 C 31.34375 4.109375 30.230469 3 28.863281 3 C 27.496094 3 26.386719 4.109375 26.386719 5.476563 C 26.386719 5.890625 26.488281 6.277344 26.667969 6.621094 C 26.703125 6.761719 26.753906 6.9375 26.789063 6.996094 C 26.855469 7.105469 26.941406 7.199219 26.972656 7.320313 C 27.007813 7.4375 27.167969 7.71875 27.222656 7.816406 C 27.273438 7.910156 27.359375 8.136719 27.359375 8.222656 C 27.359375 8.308594 27.4375 8.472656 27.480469 8.578125 C 27.523438 8.6875 27.511719 8.910156 27.457031 9.171875 C 27.402344 9.429688 27.136719 10.71875 27.050781 10.988281 C 26.878906 11.097656 26.824219 11.226563 26.800781 11.34375 C 26.78125 11.460938 26.652344 12.011719 26.566406 12.214844 C 26.480469 12.417969 26.445313 12.785156 26.4375 12.894531 C 26.425781 13 26.414063 13.246094 26.339844 13.300781 C 26.253906 13.429688 26.179688 13.644531 26.101563 13.765625 C 26.027344 13.882813 25.972656 14.292969 25.992188 14.464844 C 26.015625 14.636719 25.984375 15.003906 25.898438 15.109375 C 25.777344 15.367188 25.757813 15.667969 25.691406 15.820313 C 25.628906 15.96875 25.414063 16.753906 25.382813 16.914063 C 25.347656 17.078125 25.035156 17.324219 24.898438 17.464844 C 24.757813 17.605469 24.5 17.992188 24.433594 18.101563 C 24.414063 17.875 24.371094 17.875 24.328125 17.800781 C 24.285156 17.722656 24.148438 17.6875 24.117188 17.65625 C 24.085938 17.625 24.167969 17.527344 24.179688 17.421875 C 24.1875 17.3125 24.175781 17.195313 23.9375 17.121094 C 23.703125 17.046875 23.621094 17.03125 23.535156 16.945313 C 23.449219 16.859375 23.207031 16.789063 23.125 16.675781 C 22.898438 16.417969 22.53125 16.085938 21.8125 16.0625 C 21.8125 16.0625 21.292969 16.054688 20.886719 16.328125 C 20.507813 16.578125 19.832031 17.070313 19.691406 18.082031 C 19.550781 19.09375 20.464844 19.738281 20.539063 19.800781 C 20.617188 19.867188 20.832031 19.996094 20.679688 20.1875 C 20.605469 20.253906 20.585938 20.371094 20.574219 20.4375 C 20.5625 20.5 20.433594 20.671875 20.316406 20.78125 C 20.199219 20.886719 19.941406 21.15625 19.941406 21.15625 C 19.941406 21.15625 19.328125 21.1875 18.949219 21.714844 C 18.789063 21.910156 18.714844 22.179688 18.605469 22.339844 C 18.496094 22.503906 18.121094 23.179688 18.015625 23.382813 C 17.90625 23.589844 17.832031 23.867188 17.519531 24.148438 C 17.410156 24.332031 17.164063 24.515625 16.949219 25.34375 C 16.949219 25.34375 16.097656 26.386719 15.796875 26.878906 C 15.496094 27.375 15.023438 28.234375 14.992188 28.355469 C 14.960938 28.472656 14.722656 28.890625 14.65625 29.054688 C 14.59375 29.214844 14.570313 29.363281 14.496094 29.449219 C 14.421875 29.535156 14.152344 29.925781 13.914063 30.128906 C 13.679688 30.335938 13.601563 30.453125 13.539063 30.550781 C 13.476563 30.644531 13.378906 30.785156 12.980469 30.980469 C 12.582031 31.171875 12.367188 31.367188 11.773438 31.429688 C 11.183594 31.496094 10.859375 31.441406 10.816406 31.65625 C 10.773438 31.871094 11.808594 31.914063 12.152344 31.863281 C 12.601563 31.808594 12.871094 31.570313 12.925781 31.625 C 12.980469 31.679688 12.796875 31.980469 12.410156 32.097656 C 12.023438 32.214844 12.085938 32.335938 12.085938 32.398438 C 12.085938 32.464844 12.3125 32.539063 12.667969 32.441406 C 13.023438 32.34375 13.65625 32.039063 13.710938 32.105469 C 13.765625 32.171875 13.570313 32.433594 13.507813 32.539063 C 13.441406 32.648438 13.539063 32.765625 13.636719 32.777344 C 13.730469 32.785156 13.980469 32.753906 14.171875 32.390625 C 14.367188 32.023438 14.636719 31.851563 14.710938 31.851563 C 14.785156 31.851563 15.121094 32.21875 15.347656 32.304688 C 15.570313 32.390625 16.066406 32.390625 16.121094 32.140625 C 16.175781 31.894531 15.820313 31.882813 15.734375 31.882813 C 15.648438 31.882813 15.445313 31.691406 15.433594 31.582031 C 15.421875 31.476563 15.488281 31.132813 15.453125 30.980469 C 15.421875 30.828125 15.53125 30.292969 15.671875 29.949219 C 15.808594 29.605469 16.28125 28.785156 16.617188 28.582031 C 16.949219 28.378906 18.089844 27.550781 18.445313 26.808594 C 18.800781 26.066406 18.941406 25.6875 19.058594 25.632813 C 19.175781 25.578125 19.371094 25.570313 19.53125 25.34375 C 19.691406 25.117188 19.746094 24.945313 19.875 24.945313 C 20.003906 24.945313 19.992188 24.890625 20.359375 25.429688 C 20.726563 25.96875 20.875 26.066406 20.910156 26.140625 C 20.941406 26.214844 20.839844 26.363281 20.953125 26.582031 C 21.101563 26.871094 21.316406 26.9375 21.316406 27.085938 C 21.316406 27.238281 21.359375 27.515625 21.4375 27.710938 C 21.511719 27.90625 21.65625 28.214844 21.574219 28.347656 C 21.46875 28.519531 21.210938 28.828125 21.15625 28.9375 C 20.832031 28.980469 20.371094 29.121094 20.296875 29.800781 C 20.222656 30.4375 20.316406 31.046875 20.285156 31.1875 C 20.253906 31.328125 19.832031 31.746094 19.671875 31.8125 C 19.511719 31.875 19.132813 31.929688 19.003906 32.121094 C 18.875 32.316406 18.84375 32.476563 18.59375 32.617188 C 18.355469 32.753906 16.789063 34.097656 15.730469 35.660156 C 15.695313 35.714844 15.597656 35.753906 15.480469 35.792969 C 15.019531 35.871094 14.839844 36.015625 14.753906 36.058594 C 14.679688 36.097656 14.480469 36.289063 14.285156 36.511719 C 14.210938 36.625 14.101563 36.652344 14.066406 36.691406 C 13.65625 36.84375 12.183594 37.597656 11.300781 38.210938 C 10.417969 38.824219 8.785156 40.234375 8.203125 40.953125 C 7.824219 41.40625 7.78125 41.394531 7.6875 41.4375 C 7.589844 41.480469 7.632813 41.695313 7.664063 41.804688 C 7.664063 41.804688 7.492188 42.039063 7.382813 42.0625 C 7.277344 42.082031 7.179688 41.867188 7.039063 41.855469 C 6.898438 41.847656 6.75 42.136719 6.707031 42.210938 C 6.664063 42.285156 6.597656 42.425781 6.503906 42.449219 C 6.40625 42.46875 6.234375 42.339844 6.214844 42.070313 C 6.191406 41.804688 6.019531 41.546875 5.964844 41.523438 C 5.835938 41.523438 5.761719 41.726563 5.761719 41.804688 C 5.761719 41.878906 5.835938 42.082031 5.902344 42.167969 C 5.964844 42.253906 5.921875 42.371094 5.921875 42.460938 C 5.921875 42.546875 6.03125 42.632813 6.039063 42.664063 C 6.050781 42.695313 6.09375 42.933594 6.007813 42.910156 C 5.921875 42.890625 5.738281 42.898438 5.609375 42.984375 C 5.480469 43.070313 5.414063 43.179688 5.414063 43.253906 C 5.414063 43.328125 5.46875 43.492188 5.210938 43.546875 C 4.898438 43.652344 4.652344 43.695313 4.492188 43.75 C 4.328125 43.804688 3.953125 44.019531 3.804688 44.039063 C 3.652344 44.0625 3.554688 44.050781 3.425781 44.0625 C 3.296875 44.074219 3.179688 44.136719 3.050781 44.136719 C 2.921875 44.136719 2.546875 44.339844 2.339844 44.449219 C 2.136719 44.558594 1.898438 44.910156 2.050781 45.234375 C 2.199219 45.558594 2.632813 45.976563 2.773438 46.128906 C 2.910156 46.277344 3.117188 46.40625 3.566406 46.460938 C 4.019531 46.515625 4.277344 46.355469 4.503906 46.214844 C 4.730469 46.074219 5.226563 46 5.417969 46.042969 C 5.613281 46.085938 6.011719 46.226563 6.332031 45.988281 C 6.742188 45.710938 6.613281 45.527344 6.730469 45.449219 C 6.839844 45.449219 6.882813 45.398438 6.980469 45.234375 C 7.074219 45.074219 7.195313 44.933594 7.367188 44.902344 C 7.539063 44.871094 7.699219 44.664063 7.808594 44.441406 C 7.914063 44.214844 8.128906 43.988281 8.238281 43.945313 C 8.34375 43.902344 8.410156 43.804688 8.441406 43.71875 C 8.472656 43.632813 8.679688 43.558594 8.796875 43.460938 C 8.914063 43.363281 9.011719 43.308594 9.066406 43.351563 C 9.117188 43.394531 9.214844 43.308594 9.335938 43.222656 C 9.601563 43.09375 9.730469 42.867188 9.816406 42.921875 C 9.902344 42.976563 10.203125 43.050781 10.324219 42.945313 C 10.441406 42.835938 12.011719 41.566406 12.570313 41.148438 C 12.949219 40.890625 13.226563 40.792969 13.972656 40.363281 C 14.566406 40.015625 15.488281 39.40625 15.691406 39.265625 C 15.898438 39.125 16.832031 38.402344 16.949219 38.320313 C 17.210938 38.136719 17.476563 38.109375 18.414063 37.628906 C 19.113281 37.273438 20.578125 36.53125 21.84375 35.726563 C 22.492188 35.339844 23.589844 34.777344 23.726563 34.769531 C 23.867188 34.757813 24.253906 35.046875 24.664063 35.199219 C 25.164063 35.382813 25.492188 35.425781 26.203125 35.660156 C 26.910156 35.898438 28.828125 36.703125 29.289063 36.886719 C 29.753906 37.070313 30.386719 37.308594 31.191406 37.351563 C 31.644531 37.4375 31.859375 37.5 32.011719 37.535156 C 32.160156 37.566406 32.277344 37.554688 32.429688 37.621094 C 32.578125 37.683594 33.019531 37.976563 33.289063 38.105469 C 33.558594 38.234375 34.515625 38.867188 34.765625 39.050781 C 35.011719 39.234375 36.164063 40.117188 36.421875 40.289063 C 36.679688 40.460938 36.9375 40.664063 37.132813 40.6875 C 37.324219 40.707031 37.5625 40.835938 37.820313 41.039063 C 38.078125 41.246094 38.679688 41.664063 38.851563 41.792969 C 39.023438 41.921875 39.261719 42.148438 39.59375 42.171875 C 39.929688 42.191406 40.089844 42.269531 40.304688 42.460938 C 40.519531 42.65625 40.84375 43.085938 40.992188 43.171875 C 41.144531 43.257813 41.316406 43.398438 41.378906 43.527344 C 41.445313 43.65625 41.84375 44.148438 41.992188 44.257813 C 42.144531 44.367188 42.207031 44.460938 42.261719 44.636719 C 42.316406 44.808594 42.539063 45.257813 42.660156 45.441406 C 42.777344 45.625 42.832031 45.808594 43.175781 45.570313 C 43.617188 45.28125 43.972656 44.859375 44.53125 44.496094 C 45.09375 44.128906 45.414063 43.925781 45.84375 43.632813 C 46.277344 43.34375 47.320313 42.3125 47.621094 41.988281 C 47.917969 41.660156 48.046875 41.519531 47.984375 41.433594 Z "/>
  </g>
</svg>
