<svg xmlns="http://www.w3.org/2000/svg" width="21.688" height="19.528" viewBox="0 0 21.688 19.528">
  <g id="surface1" transform="translate(-2.002 -3)">
    <path id="Path_72" data-name="Path 72" d="M23.683,20.265a.835.835,0,0,0-.35-.16,1.663,1.663,0,0,0-.442.223.879.879,0,0,1-.243.107c-.046,0-.451.023-.542.023s-.228-.023-.289-.019-.182.005-.208.005-.035-.039,0-.077.1-.144.157-.223a.691.691,0,0,1,.223-.168c.061-.03.158-.068.168-.107s-.151-.039-.249-.009a.857.857,0,0,0-.269.2.1.1,0,0,1-.1.039c-.029-.005-.09.047-.116.067a.294.294,0,0,1-.153.063.342.342,0,0,1-.168-.088.224.224,0,0,0-.131-.039.305.305,0,0,1-.179-.061c-.055-.044-.07-.088-.055-.112a.687.687,0,0,0,.055-.116c.011-.028-.029-.044-.066-.063a3.65,3.65,0,0,1-.588-.419c-.208-.174-.584-.43-.757-.565-.133-.105-.856-.639-1.3-.909a5.515,5.515,0,0,0-1.009-.565c-.164-.025-.2-.039-.245-.088a6.564,6.564,0,0,0-1.033-.8c-.361-.188-1.087-.518-1.122-.546a.447.447,0,0,0,.05-.349c-.029-.111-.273-.279-.37-.342a.894.894,0,0,0-.162-.088s-.157-.333-.171-.383a5.61,5.61,0,0,0,.142-1.507c-.026-.758-.087-.87-.173-1.028a2.369,2.369,0,0,1-.3-.672,1.83,1.83,0,0,1-.07-.812c.044-.14.166-.386.247-.67a1.909,1.909,0,0,0,.041-.595,2.2,2.2,0,0,0,.1-.446c.015-.251.111-.265.182-.628s.1-.579.1-.579a.192.192,0,0,0,.153-.126c.026-.107.031-.193.061-.361s.041-.363.046-.4a.208.208,0,0,0-.035-.1s.05-.691.064-.86.072-.295.072-.363a.34.34,0,0,0-.075-.24.315.315,0,0,1,.048-.081.328.328,0,0,0,.041,0,1.142,1.142,0,0,0,1.17-1.113,1.17,1.17,0,0,0-2.337,0,1.062,1.062,0,0,0,.133.514.871.871,0,0,0,.057.168.569.569,0,0,1,.087.146,1.728,1.728,0,0,0,.118.223.587.587,0,0,1,.064.182.6.6,0,0,0,.057.16A.538.538,0,0,1,14,5.773c-.026.116-.151.695-.192.816a.231.231,0,0,0-.118.16,2.791,2.791,0,0,1-.111.391,1.148,1.148,0,0,0-.061.305c-.006.047-.011.158-.046.183-.041.058-.075.154-.112.209a.717.717,0,0,0-.052.314.524.524,0,0,1-.044.29c-.057.116-.066.251-.1.319s-.131.419-.146.491-.164.184-.228.247a2.245,2.245,0,0,0-.219.286.191.191,0,0,0-.05-.135c-.02-.035-.085-.051-.1-.065s.024-.058.029-.105,0-.1-.114-.135-.149-.04-.19-.079-.155-.07-.193-.121a.813.813,0,0,0-.619-.276.891.891,0,0,0-.437.119,1.1,1.1,0,0,0-.564.788.871.871,0,0,0,.4.772c.037.03.138.088.066.174a.191.191,0,0,0-.05.112.483.483,0,0,1-.122.154c-.055.047-.177.168-.177.168a.677.677,0,0,0-.468.251,2.726,2.726,0,0,0-.162.281c-.052.074-.228.377-.278.469a.945.945,0,0,1-.234.344,1.258,1.258,0,0,0-.269.537s-.4.468-.543.69a6.988,6.988,0,0,0-.379.663c-.015.053-.127.24-.158.314a.677.677,0,0,1-.076.177,2.449,2.449,0,0,1-.274.305.814.814,0,0,0-.177.19.56.56,0,0,1-.263.193,1.43,1.43,0,0,1-.569.2c-.278.03-.431.005-.451.1s.468.116.63.093c.212-.025.339-.132.365-.107s-.061.16-.243.212-.153.107-.153.135.107.063.274.019a2.9,2.9,0,0,1,.492-.151c.026.03-.066.147-.1.195a.073.073,0,0,0,.061.107A.277.277,0,0,0,7.74,16.2a.475.475,0,0,1,.254-.242c.035,0,.193.165.3.2s.339.039.365-.074-.142-.116-.182-.116a.225.225,0,0,1-.142-.135,2.062,2.062,0,0,0,.009-.27,1.224,1.224,0,0,1,.1-.463,1.719,1.719,0,0,1,.446-.614,2.7,2.7,0,0,0,.862-.8c.168-.333.234-.5.289-.528a.393.393,0,0,0,.223-.13c.075-.1.1-.179.162-.179s.055-.025.228.218.243.286.26.319-.033.1.02.2c.07.13.171.16.171.226a.851.851,0,0,0,.057.281c.035.088.1.226.064.286-.05.077-.171.216-.2.265a.412.412,0,0,0-.405.388c-.035.286.009.56-.006.623a.829.829,0,0,1-.289.281c-.076.028-.254.053-.315.139s-.075.16-.193.223a6.507,6.507,0,0,0-1.35,1.367.243.243,0,0,1-.118.06.9.9,0,0,0-.343.119,1.294,1.294,0,0,0-.221.2c-.035.051-.087.063-.1.081a8.837,8.837,0,0,0-1.3.683,9.55,9.55,0,0,0-1.461,1.232c-.179.2-.2.2-.243.218s-.026.116-.011.165c0,0-.081.105-.133.116s-.1-.088-.162-.093-.136.126-.157.16-.052.1-.1.107-.127-.049-.136-.17a.4.4,0,0,0-.118-.246c-.061,0-.1.091-.1.126a.386.386,0,0,0,.066.163c.029.039.009.091.009.132s.052.077.055.091.026.121-.015.111a.286.286,0,0,0-.188.033.173.173,0,0,0-.092.121c0,.033.026.107-.1.132-.147.047-.263.067-.339.091a3.417,3.417,0,0,1-.324.13c-.072.011-.118.005-.179.011s-.116.033-.177.033a1.4,1.4,0,0,0-.335.14.285.285,0,0,0-.136.353,1.957,1.957,0,0,0,.341.4.566.566,0,0,0,.374.149.633.633,0,0,0,.442-.111.829.829,0,0,1,.431-.077.523.523,0,0,0,.431-.025c.193-.125.133-.207.188-.242.052,0,.072-.023.118-.1a.284.284,0,0,1,.182-.149c.081-.014.157-.107.208-.207a.531.531,0,0,1,.2-.223.175.175,0,0,0,.1-.1c.015-.039.112-.072.168-.116s.1-.068.127-.049.07-.019.127-.058c.125-.058.186-.16.227-.135s.182.058.239.011.8-.619,1.059-.807c.179-.116.309-.16.661-.353.28-.156.715-.43.81-.493s.538-.388.593-.425c.123-.082.249-.095.691-.311.33-.16,1.02-.493,1.617-.855a6.424,6.424,0,0,1,.888-.43,4.423,4.423,0,0,1,.442.193c.236.082.39.1.726.207s1.238.468,1.455.551a2.869,2.869,0,0,0,.9.209c.214.039.315.067.387.082a.889.889,0,0,1,.2.039c.07.028.278.16.405.218s.578.342.7.425.659.479.781.556a1.066,1.066,0,0,0,.335.179.716.716,0,0,1,.324.158c.122.093.405.281.486.339a.676.676,0,0,0,.35.17.481.481,0,0,1,.335.13c.1.088.254.281.324.319a.468.468,0,0,1,.182.16,1.836,1.836,0,0,0,.289.328.285.285,0,0,1,.127.17,2.184,2.184,0,0,0,.188.361c.055.082.081.165.243.058.208-.13.376-.319.639-.483s.416-.256.619-.388a7.819,7.819,0,0,0,.838-.739C23.652,20.367,23.713,20.3,23.683,20.265Z" fill="#f0f3f4"/>
  </g>
</svg>
